<?xml version="1.0" standalone="no"?>
<!DOCTYPE svg PUBLIC "-//W3C//DTD SVG 20010904//EN"
 "http://www.w3.org/TR/2001/REC-SVG-20010904/DTD/svg10.dtd">
<svg version="1.0" xmlns="http://www.w3.org/2000/svg"
 width="512.000000pt" height="512.000000pt" viewBox="0 0 512.000000 512.000000"
 preserveAspectRatio="xMidYMid meet">
<metadata>
Created by potrace 1.11, written by Peter Selinger 2001-2013
</metadata>
<g transform="translate(0.000000,512.000000) scale(0.100000,-0.100000)"
fill="#000000" stroke="none">
<path d="M2495 4848 c-63 -36 -59 -117 7 -133 34 -9 64 8 76 42 11 34 1 66
-30 87 -26 19 -27 19 -53 4z"/>
<path d="M2200 4710 c-17 -17 -20 -34 -20 -122 -1 -57 -1 -462 -1 -900 l0
-798 -67 0 -67 0 1 434 c1 395 -1 436 -16 456 -21 28 -75 30 -95 4 -9 -13 -12
-78 -10 -261 1 -209 -1 -245 -14 -257 -40 -35 -92 -26 -72 12 12 23 7 29 -26
26 -19 -1 -23 4 -23 26 0 23 4 27 20 23 33 -9 78 16 89 48 20 56 -17 104 -78
102 l-36 -2 0 236 c0 234 0 235 -24 254 -31 25 -57 24 -84 -3 l-23 -23 1 -530
c1 -291 -2 -534 -6 -540 -5 -6 -85 -8 -225 -5 l-217 5 -20 27 -20 27 33 122
c19 66 39 123 44 125 6 2 40 5 75 7 64 2 65 2 73 36 5 18 7 36 4 38 -3 3 -35
5 -72 4 -50 -1 -65 2 -61 12 2 7 17 56 31 110 15 53 29 104 32 112 5 12 -2 15
-34 15 l-41 0 -16 -57 c-17 -62 -45 -160 -51 -180 -2 -9 -26 -13 -72 -13 -64
0 -70 -2 -80 -25 -16 -34 -15 -56 1 -54 6 1 37 1 68 0 l57 -1 -28 -88 c-38
-122 -44 -181 -23 -233 26 -65 44 -69 317 -69 l235 0 -2 -47 c-2 -38 -6 -48
-23 -53 -11 -3 -59 -40 -106 -84 l-86 -79 0 -538 0 -539 108 0 107 0 0 -173
c0 -94 3 -194 7 -222 30 -203 145 -404 305 -529 55 -43 200 -124 241 -135 8
-2 42 -12 76 -21 340 -98 717 37 927 331 65 92 118 214 133 309 3 19 7 46 10
60 2 14 4 105 5 203 l0 177 154 0 155 0 1 43 c1 67 1 448 0 488 -1 34 -8 41
-155 153 l-154 117 -1 102 -1 103 40 1 c30 1 40 -3 41 -16 1 -9 2 -32 4 -51 1
-19 3 -42 4 -50 1 -13 18 -15 99 -14 53 1 102 3 108 3 15 1 16 361 0 362 -6 0
-74 1 -151 2 l-140 2 -3 47 c-3 46 -3 47 30 50 20 2 32 8 30 16 -3 15 0 15 34
-3 24 -12 95 -15 440 -15 l412 0 6 24 c3 13 9 31 12 40 6 14 -33 16 -404 16
-406 0 -411 0 -426 21 -11 16 -12 28 -4 51 17 49 45 60 164 61 l106 2 13 37
c9 27 9 38 1 40 -6 2 -55 3 -108 2 -82 -1 -100 2 -114 17 -12 14 -13 22 -5 38
21 38 48 43 217 44 160 0 163 0 168 22 3 13 9 30 12 39 6 15 -11 17 -169 16
-162 -2 -179 -3 -219 -25 -27 -14 -54 -40 -72 -69 -28 -44 -29 -50 -19 -89 11
-39 10 -44 -13 -68 -28 -30 -54 -94 -49 -121 3 -13 -3 -18 -20 -18 l-24 0 -1
313 c-1 171 -2 346 -2 388 0 63 -3 81 -19 98 -24 26 -59 27 -89 3 l-22 -18 -1
-392 0 -392 -66 0 -66 0 0 743 0 742 -22 23 c-27 27 -53 28 -84 3 l-24 -19 0
-463 c-1 -255 -4 -474 -8 -486 -7 -19 -27 -34 -52 -38 -17 -2 -65 25 -66 38
-1 6 -3 63 -4 124 -1 93 -5 116 -20 133 -25 28 -69 26 -93 -5 -18 -23 -19 -40
-18 -225 0 -110 0 -200 -2 -200 -1 0 -14 7 -28 16 -17 11 -37 15 -64 11 l-40
-5 0 318 0 319 -25 19 c-15 12 -34 18 -50 14 -52 -9 -55 -25 -54 -317 0 -149
0 -289 0 -312 l-1 -43 -40 0 c-39 0 -40 -1 -52 -45 -9 -34 -15 -42 -25 -33
-10 8 -13 154 -13 749 l0 738 -22 21 c-28 25 -62 26 -88 0z m242 -1470 c-2
-16 -10 -34 -17 -40 -11 -9 -11 -3 -3 30 12 46 27 54 20 10z m188 -59 c0 -14
-11 -51 -36 -121 -10 -29 -24 13 -24 74 0 45 4 62 17 72 21 14 43 2 43 -25z
m73 -83 c-2 -18 -11 -40 -20 -48 -14 -13 -14 -12 -8 10 22 73 37 93 28 38z
m713 -1184 c8 -7 12 -38 11 -85 l-2 -74 -30 0 -30 0 -3 104 -3 105 23 -20 c12
-10 28 -24 34 -30z"/>
<path d="M2460 4433 c-18 -23 -21 -39 -19 -117 1 -109 14 -136 63 -136 53 0
67 25 67 116 0 122 0 123 -21 144 -28 28 -64 25 -90 -7z"/>
<path d="M1681 4333 c-29 -26 -34 -67 -10 -98 38 -47 112 -19 112 43 0 61 -57
92 -102 55z"/>
<path d="M850 2712 c-15 -2 -61 -36 -115 -86 l-89 -84 -1 -523 c0 -288 1 -530
3 -536 3 -10 65 -13 266 -13 l261 0 80 87 c44 48 81 96 82 107 2 21 5 202 4
221 -1 12 -226 14 -238 2 -4 -5 -8 -36 -8 -70 l0 -62 -97 -3 c-54 -1 -98 1
-98 5 -1 18 -1 584 -1 650 l1 71 98 -1 97 -2 0 -115 0 -114 118 -1 c65 -1 121
3 124 8 7 12 8 446 0 453 -6 6 -441 11 -487 6z"/>
<path d="M3803 2712 l-21 -3 0 -608 c0 -335 4 -614 7 -620 5 -8 44 -11 122 -9
l114 3 0 245 0 245 105 0 105 0 2 -200 c1 -110 3 -221 4 -247 l2 -48 119 0
c87 0 118 3 119 13 5 48 3 1220 -2 1222 -11 7 -229 8 -235 2 -4 -4 -7 -113 -7
-242 1 -168 -3 -235 -11 -236 -6 -1 -52 -2 -103 -3 -75 -1 -93 2 -95 14 -2 8
-3 117 -3 242 l1 227 -100 3 c-56 2 -111 2 -123 0z"/>
</g>
</svg>
