<?xml version="1.0" standalone="no"?>
<!DOCTYPE svg PUBLIC "-//W3C//DTD SVG 20010904//EN"
 "http://www.w3.org/TR/2001/REC-SVG-20010904/DTD/svg10.dtd">
<svg version="1.0" xmlns="http://www.w3.org/2000/svg"
 width="752.000000pt" height="752.000000pt" viewBox="0 0 752.000000 752.000000"
 preserveAspectRatio="xMidYMid meet">
<metadata>
Created by potrace 1.11, written by Peter Selinger 2001-2013
</metadata>
<g transform="translate(0.000000,752.000000) scale(0.100000,-0.100000)"
fill="#000000" stroke="none">
<path d="M3730 7506 c-63 -35 -73 -136 -20 -190 24 -24 38 -30 75 -30 38 -1
50 4 77 32 28 28 32 39 32 81 0 29 -8 60 -18 76 -29 44 -96 58 -146 31z"/>
<path d="M3254 7286 c-22 -22 -34 -44 -35 -62 0 -16 -1 -704 -2 -1529 -2
-1651 3 -1529 -64 -1560 -46 -22 -122 -3 -124 30 0 8 0 48 -1 88 0 41 -6 84
-14 99 -12 22 -14 141 -14 678 0 562 -2 655 -15 680 -37 72 -145 75 -192 4
-14 -22 -16 -70 -16 -430 0 -474 6 -448 -96 -449 -53 0 -64 3 -88 27 l-27 28
-3 552 c-2 304 -6 567 -9 585 -7 46 -55 83 -106 83 -32 0 -47 -7 -74 -34 l-34
-34 3 -2429 2 -2428 27 -105 c91 -359 296 -649 596 -843 133 -86 335 -175 442
-194 14 -2 41 -8 61 -13 91 -24 371 -34 497 -18 466 62 885 360 1091 777 38
77 94 235 106 298 2 15 8 39 12 53 4 14 9 1008 11 2210 2 1723 0 2190 -10
2208 -25 48 -94 65 -148 37 -60 -31 -57 5 -59 -758 l-1 -447 -26 4 c-20 4 -34
-2 -55 -24 -40 -39 -41 -107 -4 -145 14 -14 36 -25 48 -25 l22 -1 -24 -19
c-34 -29 -63 -34 -104 -17 -73 31 -68 -74 -69 1298 -1 679 -5 1249 -10 1267
-22 81 -151 93 -198 18 -12 -17 -14 -160 -15 -802 -1 -720 -2 -783 -18 -807
-44 -68 -139 -70 -182 -4 -11 18 -15 63 -17 202 -1 99 -6 192 -11 208 -26 79
-146 90 -194 18 -16 -24 -18 -68 -20 -520 -2 -533 -1 -529 -55 -557 -47 -24
-86 -18 -124 20 l-34 34 -1 359 c0 197 -1 511 -1 698 0 319 -2 342 -20 372
-22 36 -79 58 -123 47 -29 -7 -75 -57 -76 -82 0 -9 -1 -270 -3 -580 -3 -546
-3 -563 -23 -590 -42 -56 -123 -58 -170 -3 l-23 26 0 1224 c0 1160 -1 1226
-18 1255 -38 65 -115 75 -168 22z"/>
<path d="M3723 6855 c-58 -25 -65 -48 -65 -208 0 -78 1 -153 1 -165 1 -13 16
-39 35 -58 40 -40 83 -45 133 -14 46 28 55 69 51 242 l-3 148 -30 29 c-36 35
-79 44 -122 26z"/>
<path d="M2425 6678 c-60 -17 -85 -53 -85 -121 0 -36 6 -51 29 -76 16 -17 38
-32 50 -32 68 -4 76 -2 110 33 79 81 2 226 -104 196z"/>
</g>
</svg>
